<?xml version="1.0" encoding="UTF-8"?>
<svg id="Camada_2" data-name="Camada 2" xmlns="http://www.w3.org/2000/svg" viewBox="0 0 2249.31 2159.63">
  <g id="Camada_1-2" data-name="Camada 1">
    <g>
      <path d="m274.85,487.14c-74.88,57.71-106.19,141.08-131.32,232.48-19.4-17.48-13.44-34.82-11.39-49.92,14.53-106.79,77.72-180.34,164.94-236.29,111.33-71.42,235.39-103.83,365.53-117.32,140.17-14.53,109.53,8.21,112.99-118.56,1.36-49.66,2.21-99.5-.38-149.07-2.05-39.28,16.17-48,50.95-48.09,36.08-.08,55.98,8.61,54.8,49.91-2.08,72.36.69,144.86-1.05,217.24-.8,33.31,9.63,47.11,44.64,51.09,167.89,19.09,324.08,70.68,459.72,175.27,6.57,5.06,13.65,13.92,22.01,9.87,12.66-6.13,8.09-20.01,8.12-30.72.31-139.16,1.36-278.34-.48-417.48C1413.39,15.88,1424.57-.23,1466.53,0c41.47.23,54.14,16.08,53.63,55.74-1.61,126.36.65,252.78-1.27,379.13-.6,39.38,12.89,51.43,51.71,50.84,130.61-1.97,261.28-.81,391.92-.71,56.37.05,59.74,3.07,59.84,50.66.1,49.34-4.73,53.76-62.34,53.83-144.85.16-289.69.6-434.53-.33-32.77-.21-45.29,2.77-22.65,37.56,37.14,57.1,56.75,120.55,51.07,189.92-.55,6.75,0,14.56-7.91,17.89-160.92-202.25-388.61-296.25-620.2-383.62-41.72-15.74-44.8-12.37-45.3,34.06-1.23,114.58,13.97,104.29-105.5,104.52-144.84.28-289.69.11-434.54.04q-68.95-.03-67.86-68.26c.2-11.31,1.6-22.61,2.44-33.91,19.81-.8,39.61-2.25,59.42-2.29,134.75-.23,269.5-.24,404.25-.11,20.26.02,37.71-2.45,36.82-28.86-.74-21.96,5.85-46.86-26.95-53.53-169.16-34.38-330.26-24.55-473.74,84.55Z"/>
      <path d="m717.39,780.26c170.3,213.01,410.35,307.48,653.47,397.09,31.23,11.51,46.51,3.91,43.76-30.99-.33-4.23-.06-8.52,0-12.78,1.74-117.1-16.12-101.98,105.59-102.6,146.34-.74,292.68.31,439.01-.52,39.31-.22,75.63-.86,59.21,69.86,64.92-63.43,83.15-132.74,106.68-200.55,15.37,41.96,6.09,82.12-10.91,120.2-39.44,88.35-109.76,147.07-192.86,191.61-111.02,59.51-231.79,84.56-355.99,93.2-35.22,2.45-47.03,14.61-46.23,48.84,1.66,71-1.29,142.12,1.06,213.08,1.39,42.04-18.78,49.2-54.76,48.9-34.66-.29-52.7-8.17-51.41-47.63,2.32-70.96-.56-142.08,1.13-213.08.77-32.46-7.48-48.08-43.47-51.94-165.82-17.77-323.87-59.69-462.25-158.65-30.23-21.62-28.76,3.8-28.81,22.44-.29,130.71-.03,261.42-.28,392.13-.1,53.12-3.76,54.14-54.78,56.56-40.49,1.92-50.84-15.1-50.36-52.68,1.64-126.43-.58-252.91,1.31-379.33.57-38.01-13.09-48.92-49.6-48.48-133.53,1.61-267.1.79-400.65.52-48.07-.1-73.92-47.37-49.91-90.4,10.69-19.16,29.67-13.92,45.79-13.97,137.81-.47,275.63-.19,413.44-.34,48.72-.05,48.77-.35,25.16-41.32-30.21-52.42-52.09-107.37-51.25-169.14.19-13.75-1.46-28.17,7.89-40.04Zm1255.06,363.18c-8.51-3.95-12.01-6.98-15.52-6.99-134.43-.37-268.86-.37-403.29-.66-22.74-.05-34.21,10.15-33.76,33.28.43,22.38-4.33,46.17,28.87,51.6,71.48,11.7,142.7,19.59,214.8,4.89,73.15-14.91,145.05-32.37,208.9-82.12Z"/>
      <path d="m751.92,1954.56c0-60.92,1.34-121.89-.51-182.75-1.09-35.93,10.57-50.94,48.64-50.42,73.06,1,73.13-.81,73.14,72.01.02,103.67-1.06,207.35.53,311,.54,35.49-13.23,45.3-47.38,47.51-48.84,3.15-81.83-10.49-109.38-53.71-41.7-65.41-90.79-126.11-142.96-197.29,0,73.5-2.52,138.09.79,202.38,2.71,52.68-30.52,46.84-63.85,47.88-34.94,1.09-60.11-1.3-58.93-48.58,2.77-110.7,2.01-221.54.27-332.28-.59-37.7,14.23-47.02,50.02-49.5,49.69-3.45,82.23,12.83,109.53,54.47,41.03,62.6,87.33,121.74,131.38,182.36,2.91-1.02,5.81-2.05,8.72-3.07Z"/>
      <path d="m2045.97,2075.01c-21.98,0-33.44.96-44.68-.19-29.72-3.03-47.47,6.99-55.68,38.21-8.75,33.27-91.11,54.35-118.27,32.76-12.12-9.63-6.08-20.93-2.63-31.04,41.27-120.95,82.89-241.79,124.62-362.58,4.74-13.72,11.28-27.85,28.16-28.26,38.28-.93,76.61-.98,114.88.04,16.93.45,22.9,14.92,27.68,28.65,41.97,120.71,83.75,241.49,125.8,362.17,7.91,22.71,3.12,36.03-23.44,35.75-21.3-.22-42.61.03-63.9-.41-13.99-.29-27.28-6.13-28.96-20.33-7.24-61.08-49.8-58.98-83.57-54.76Zm-11.18-254.43c-16.03,52.57-28.43,92.73-40.45,133.01-3.29,11.02-6.1,24.71,8.03,28.71,21.77,6.16,45.04,6.4,66.66-.31,13.58-4.22,10.78-18.01,7.32-29.13-12.46-40.13-25.17-80.18-41.56-132.28Z"/>
      <path d="m213.67,1722.09q77.08.02,101.29,70.35c36.23,104.6,71.75,209.46,109.52,313.5,12.56,34.58,4.53,45.63-31.95,45.52-43.92-.13-87.62,4.4-93.65-56.49-.13-1.34-.73-3.02-1.71-3.84-39.92-33.6-86.9-9.31-130.22-15.45-22.77-3.23-31.2,13.31-37.96,32.34-12.91,36.31-86.48,60.07-120.08,40.04-13.76-8.2-8.4-19.08-4.74-29.74,41.99-122.13,84.01-244.26,126.05-366.37,16.38-47.59,57.45-22.86,83.45-29.86Zm3.32,97.93c-16.85,54.4-30.52,98.21-43.96,142.08-5.41,17.67,4.25,23.1,19.76,23.22,12.75.1,25.53-.41,38.25.27,28.17,1.51,34.75-10.25,25.87-36.32-13.21-38.76-24.31-78.25-39.93-129.25Z"/>
      <path d="m1107.31,1986.64c24.9-70.24,47.44-132.88,69.3-195.76,23.91-68.78,23.63-68.87,94.51-68.78,61.45.08,61.78.21,37.82,57.48-46.52,111.19-94.46,221.81-139.54,333.58-12.44,30.84-31.62,38.45-61.97,38.35-29.98-.09-50.48-6.59-63.04-37.37-47.69-116.84-97.11-232.98-146.65-349.05-13.69-32.07-4.39-45.15,29.72-43.03,11.3.7,22.85,1.28,34-.19,36.94-4.86,56.3,10.08,67.85,46.43,22.7,71.46,50.19,141.4,77.99,218.34Z"/>
      <path d="m1659.72,2159.38c-48.54,2.03-92.09-11.78-131.31-40.72-19.46-14.35-25.11-29.16-9.72-49.94,9.26-12.5,17.46-25.93,24.93-39.6,10.12-18.52,20.51-20.19,36.08-5.21,19.63,18.89,42.31,34.12,70.16,37.52,24.17,2.95,47.21-1.62,54.14-29.08,6.45-25.56-10.35-39.83-31.82-48.18-19.81-7.7-40.52-13.06-60.48-20.4-62.87-23.13-86.62-55.85-85.44-116.63,1.19-61.51,36.51-111.12,94.26-127.23,52.37-14.6,103.7-8.93,153.35,14.41,43.21,20.31,14.39,46.52,7.01,70.85-8.01,26.39-23.23,33.17-47.69,17.26-15.77-10.25-34-13.92-52.98-12.75-16.58,1.03-32.13,5.56-36.31,23.54-4.47,19.22,9.61,28.37,24.88,34.2,17.21,6.56,34.98,11.66,52.48,17.45,77.91,25.8,108.6,68.69,100.63,140.57-8.29,74.71-62.04,127.48-136.65,133.84-8.45.72-17.01.1-25.52.1Z"/>
      <path d="m1341.2,1932.34c0-53.96.79-107.94-.29-161.89-.67-33.07,10.26-48.76,46.57-48.99,81.68-.51,81.68-2.05,81.68,80.57,0,99.41-1.39,198.84.68,298.21.82,39.51-13.77,55.08-52.19,50.71-9.82-1.11-19.94-1.01-29.79-.07-35.91,3.39-47.65-14.64-46.97-48.14,1.16-56.78.32-113.6.32-170.41Z"/>
      <path d="m1144.1,681.59c72.69-.48,130.03,56.55,129.57,128.89-.42,66.88-61.71,127.59-128.8,127.59-66.52,0-128.42-62.24-127.92-128.6.53-69.98,57.65-127.41,127.15-127.87Z"/>
    </g>
  </g>
</svg>