<svg xmlns="http://www.w3.org/2000/svg" xmlns:xlink="http://www.w3.org/1999/xlink" id="Camada_1" x="0px" y="0px" viewBox="0 0 247 248.9" style="enable-background:new 0 0 247 248.9;" xml:space="preserve"><style type="text/css">	.st0{fill:url(#SVGID_1_);}	.st1{fill:url(#SVGID_00000155147482565317759190000008657201458925051571_);}	.st2{fill:url(#SVGID_00000060031602040718425700000010286850212823533441_);}	.st3{fill:url(#SVGID_00000062164851544808443210000012350124604386291354_);}	.st4{fill:url(#SVGID_00000121237341180641434840000007978823947785358737_);}	.st5{fill:url(#SVGID_00000166676112322762881120000001361782055046529680_);}	.st6{fill:url(#SVGID_00000005985343355197712960000015967164706711891353_);}	.st7{fill:#9A57C4;}	.st8{fill:#FFFFFF;}</style><linearGradient id="SVGID_1_" gradientUnits="userSpaceOnUse" x1="187.0017" y1="234.4476" x2="48.5344" y2="-5.3848">	<stop offset="0.398" style="stop-color:#E3B749"></stop>	<stop offset="0.5184" style="stop-color:#FFFFFF"></stop>	<stop offset="0.6137" style="stop-color:#F7E66F"></stop></linearGradient><circle class="st0" cx="123.5" cy="124.5" r="121.2"></circle><linearGradient id="SVGID_00000096045317540228489670000012109334793808890039_" gradientUnits="userSpaceOnUse" x1="74.2145" y1="46.0986" x2="200.5123" y2="246.9069">	<stop offset="0.398" style="stop-color:#E3B749"></stop>	<stop offset="0.5184" style="stop-color:#FFFFFF"></stop>	<stop offset="0.6137" style="stop-color:#F7E66F"></stop></linearGradient><circle style="fill:url(#SVGID_00000096045317540228489670000012109334793808890039_);" cx="123.5" cy="124.5" r="117.6"></circle><linearGradient id="SVGID_00000066509058859619212090000011450149384032159375_" gradientUnits="userSpaceOnUse" x1="9.3516" y1="124.4724" x2="237.6634" y2="124.4724">	<stop offset="0" style="stop-color:#742BA2"></stop>	<stop offset="1" style="stop-color:#9A57C4"></stop></linearGradient><circle style="fill:url(#SVGID_00000066509058859619212090000011450149384032159375_);" cx="123.5" cy="124.5" r="114.2"></circle><linearGradient id="SVGID_00000072976689531104002260000011249321966853382287_" gradientUnits="userSpaceOnUse" x1="77.784" y1="51.774" x2="194.9361" y2="238.0409">	<stop offset="0.398" style="stop-color:#E3B749"></stop>	<stop offset="0.5184" style="stop-color:#FFFFFF"></stop>	<stop offset="0.6137" style="stop-color:#F7E66F"></stop></linearGradient><circle style="fill:url(#SVGID_00000072976689531104002260000011249321966853382287_);" cx="123.5" cy="124.5" r="109.1"></circle><linearGradient id="SVGID_00000136380268479897035350000017048487267003041438_" gradientUnits="userSpaceOnUse" x1="185.9356" y1="195.7287" x2="48.9964" y2="39.4244">	<stop offset="0" style="stop-color:#E3B749"></stop>	<stop offset="1" style="stop-color:#F7E66F"></stop></linearGradient><circle style="fill:url(#SVGID_00000136380268479897035350000017048487267003041438_);" cx="123.5" cy="124.5" r="107"></circle><linearGradient id="SVGID_00000012474614819208742390000005816460174333327802_" gradientUnits="userSpaceOnUse" x1="82.7568" y1="75.5168" x2="165.1745" y2="174.5288">	<stop offset="1.003345e-02" style="stop-color:#E3B749"></stop>	<stop offset="0.2157" style="stop-color:#FFFFFF"></stop>	<stop offset="0.4548" style="stop-color:#F7E66F"></stop></linearGradient><circle style="fill:url(#SVGID_00000012474614819208742390000005816460174333327802_);" cx="123.5" cy="124.5" r="77.1"></circle><linearGradient id="SVGID_00000070807318225067073320000012102686338315523751_" gradientUnits="userSpaceOnUse" x1="72.4262" y1="72.6052" x2="175.4725" y2="177.2369">	<stop offset="0" style="stop-color:#742BA2"></stop>	<stop offset="1" style="stop-color:#9A57C4"></stop></linearGradient><circle style="fill:url(#SVGID_00000070807318225067073320000012102686338315523751_);" cx="123.5" cy="124.5" r="74.1"></circle><g>	<g>		<path class="st7" d="M43.2,172.9c-1.1,0.8-1,1.7-0.4,2.8c0.5,0.7,1.2,1.4,2,0.9c0.9-0.5,0.2-2-0.3-3.6c-0.5-1.6-0.7-3.4,1-4.6   c2.1-1.3,4.3,0.2,5.4,2c1.2,1.9,1.5,4.4-0.7,5.8l-1.6-2.5c0.9-0.5,0.7-1.5,0.2-2.3c-0.3-0.5-1-1.1-1.6-0.7c-0.8,0.5,0,1.9,0.5,3.6   c0.5,1.6,0.7,3.4-1.1,4.5c-2.5,1.6-4.6,0-5.9-2.1c-1.4-2.2-1.6-4.8,0.9-6.4L43.2,172.9z"></path>		<path class="st7" d="M55.7,177.6l1.9,2.3l-6.3,10.6l-1.9-2.4l1.2-1.8l-2.5-3.1L46,184l-1.9-2.3L55.7,177.6z M50.3,182.4l1.6,2   l2.3-3.5l0,0L50.3,182.4z"></path>		<path class="st7" d="M64.1,190.6l-2.4-2.4l-6.3,6.3l-2.1-2.1l6.3-6.3l-2.4-2.4l1.8-1.8l6.8,6.9L64.1,190.6z"></path>		<path class="st7" d="M66.7,189.2l2.2,1.9l-7.5,8.8l-2.2-1.9L66.7,189.2z"></path>		<path class="st7" d="M67.6,199.8c-0.7,1.1-0.3,2,0.7,2.7c0.7,0.5,1.7,0.8,2.2,0.1c0.6-0.8-0.6-1.9-1.7-3.3c-1-1.3-2-2.9-0.8-4.6   c1.5-2.1,4.1-1.4,5.8-0.2c1.8,1.3,3,3.5,1.5,5.7l-2.4-1.7c0.6-0.8,0.1-1.7-0.7-2.2c-0.5-0.4-1.3-0.6-1.7,0   c-0.5,0.7,0.7,1.8,1.8,3.1c1.1,1.3,2,2.9,0.7,4.6c-1.7,2.4-4.2,1.7-6.3,0.3c-2.1-1.5-3.3-3.8-1.6-6.2L67.6,199.8z"></path>		<path class="st7" d="M78.4,197.9l7.3,4l-1.2,2.1l-4.7-2.6l-1.1,2.1l4.1,2.3l-1.1,2l-4.1-2.3l-2.2,3.9l-2.6-1.4L78.4,197.9z"></path>		<path class="st7" d="M88.5,203.2l2.8,1.2l-0.6,12.3l-2.8-1.2l0.2-2.2l-3.6-1.5l-1.5,1.6l-2.8-1.2L88.5,203.2z M85.8,209.9l2.4,1   l0.4-4.2l0,0L85.8,209.9z"></path>		<path class="st7" d="M103.5,215.7c-0.9,2.8-3.4,3.9-6.1,3.2l-0.7,0.6l0,0c0.2,0,0.4,0,0.6,0.1c0.6,0.2,1.2,0.7,0.9,1.6   c-0.3,1.1-1.3,1.3-2.4,1c-0.7-0.2-1.3-0.7-1.7-1l0.5-0.6c0.4,0.3,0.8,0.5,1.2,0.6c0.4,0.2,0.8,0.1,0.9-0.3c0.1-0.4,0-0.7-0.5-0.8   c-0.2-0.1-0.4-0.1-0.6-0.1l-0.3-0.4l1.1-1c-2.8-1.1-4-4.1-3.2-7.1c0.9-3.2,3.8-5.2,7.1-4.3c2.3,0.7,4.5,2.9,3.8,5.6l-2.8-0.8   c0.2-1.2-0.5-2-1.7-2.3c-1.8-0.5-3,0.9-3.5,2.6c-0.5,1.6-0.2,3.5,1.6,4c1.3,0.4,2.3-0.2,2.8-1.4L103.5,215.7z"></path>		<path class="st7" d="M109.4,209.5l3,0.4l2.5,12l-3-0.4l-0.4-2.1l-3.9-0.6l-1,1.9l-3-0.4L109.4,209.5z M114.3,207.2   c-0.3,1.1-1,1.9-2.2,1.8c-0.5-0.1-0.9-0.3-1.2-0.5c-0.4-0.2-0.7-0.4-1-0.4c-0.4-0.1-0.7,0.3-0.8,0.6l-1.1-0.2   c0.1-0.5,0.4-1,0.8-1.4c0.4-0.4,0.9-0.6,1.4-0.5c0.4,0.1,0.8,0.3,1.2,0.5c0.4,0.2,0.7,0.4,1,0.5c0.3,0.1,0.7-0.2,0.8-0.6   L114.3,207.2z M108.5,216.6l2.5,0.4l-0.7-4.2l0,0L108.5,216.6z"></path>		<path class="st7" d="M121.9,210.3c3.6,0.1,5.5,2.8,5.5,6.1s-2.1,6-5.7,5.9c-3.6-0.1-5.5-2.8-5.5-6.1S118.3,210.3,121.9,210.3z    M121.7,219.8c1.9,0,2.7-1.7,2.7-3.4c0-1.7-0.7-3.4-2.6-3.5c-1.9,0-2.7,1.7-2.7,3.4C119.1,218,119.8,219.7,121.7,219.8z"></path>		<path class="st7" d="M145.4,219.8l-1.9,0.3l-0.4-1.2c-0.6,1.2-1.8,1.8-2.9,2c-3.4,0.6-6-1.7-6.6-5c-0.6-3.3,1.2-6.3,4.5-6.9   c2.3-0.4,5,0.4,5.8,3.2l-2.9,0.5c-0.3-1-1.3-1.4-2.5-1.2c-1.9,0.3-2.3,2.1-2,3.8c0.3,1.7,1.3,3.2,3.2,2.9c1.4-0.2,2.3-1.1,2.3-2.2   l-2,0.3l-0.4-2.2l4.7-0.8L145.4,219.8z"></path>		<path class="st7" d="M147.6,207.2l2.9-0.9l7.5,9.8L155,217l-1.3-1.8l-3.8,1.2l-0.1,2.2l-2.9,0.9L147.6,207.2z M149.9,214.1   l2.5-0.8l-2.4-3.5l0,0L149.9,214.1z"></path>		<path class="st7" d="M154.7,204.9l5.3-2.4c1.8-0.8,4-0.8,4.9,1.3c0.5,1.1,0.5,2.4-0.4,3.4l0,0c1.2-0.2,2.1,0.9,2.6,1.8   c0.2,0.4,1,2,1.5,2.2l-2.7,1.2c-0.4-0.2-0.9-1.3-1.1-1.5c-0.6-1-1.2-2-2.5-1.5l-2,0.9l1.7,3.8l-2.7,1.2L154.7,204.9z M159.5,208.3   l2.3-1c0.8-0.4,1-1,0.7-1.8c-0.4-0.8-1.1-0.9-1.9-0.5l-2.1,1L159.5,208.3z"></path>		<path class="st7" d="M167.1,198.8l2.6-1.6l9.6,7.6l-2.6,1.6L175,205l-3.4,2.1l0.5,2.1l-2.6,1.6L167.1,198.8z M171.1,204.8l2.2-1.3   l-3.2-2.8l0,0L171.1,204.8z"></path>		<path class="st7" d="M173.4,194.8l2.4-1.9l7.5,3.1l0,0l-4.4-5.6l2.2-1.7l7.2,9l-2.4,1.9l-7.6-3.2l0,0l4.5,5.6l-2.2,1.7   L173.4,194.8z"></path>		<path class="st7" d="M190.2,183.1l-2.4,2.4l6.4,6.3l-2.1,2.1l-6.4-6.3l-2.4,2.4l-1.8-1.8l6.8-6.9L190.2,183.1z"></path>		<path class="st7" d="M188.9,180.6l1.9-2.3l8.9,7.4l-1.9,2.3L188.9,180.6z"></path>		<path class="st7" d="M191.8,177.1l2.7-4c2-2.9,4.9-3.4,7.9-1.4c3.1,2.1,3.6,5,1.7,7.9l-2.7,4L191.8,177.1z M200.9,179.8l0.8-1.2   c1.2-1.9,1-3.1-0.9-4.4c-1.7-1.2-3.2-0.8-4.3,0.8l-0.8,1.2L200.9,179.8z"></path>		<path class="st7" d="M199.6,164.9l1.4-2.7l12.2,1.5l-1.4,2.7l-2.2-0.3l-1.8,3.5l1.5,1.6l-1.4,2.7L199.6,164.9z M206.1,168.1   l1.2-2.3l-4.2-0.7l0,0L206.1,168.1z"></path>	</g></g><g>	<g>		<path class="st7" d="M46.9,86.8L46,88.9l-1.5-0.4c0.9,1.4,0.8,3.1,0.3,4.3c-1.6,3.9-5.7,5.3-9.5,3.7c-3.9-1.5-5.9-5.3-4.3-9.3   c1.1-2.7,3.7-5,7.2-4l-1.4,3.4c-1.2-0.3-2.3,0.5-2.9,1.8c-0.9,2.2,0.8,3.8,2.7,4.6c2,0.8,4.3,0.7,5.2-1.5c0.7-1.7,0.3-3.1-0.8-3.8   l-1,2.4l-2.6-1l2.2-5.5L46.9,86.8z"></path>		<path class="st7" d="M37.5,74.5l1.9-3.2l15,3l-2,3.3l-2.6-0.6l-2.5,4.2l1.7,2.1l-2,3.2L37.5,74.5z M45.3,78.9l1.7-2.7l-5.1-1.3   l0,0L45.3,78.9z"></path>		<path class="st7" d="M43.9,64.6l4.6-5.5c1.6-1.9,4.1-3,6.3-1.1c1.2,1,1.8,2.5,1.3,4l0,0c1.2-0.9,2.8-0.1,3.9,0.7   c0.5,0.4,2.1,1.7,2.8,1.6l-2.3,2.8c-0.6-0.1-1.7-0.9-2-1.2c-1.2-0.9-2.5-1.6-3.6-0.3l-1.8,2.1l4,3.4l-2.4,2.8L43.9,64.6z M51,65.8   l2-2.3c0.7-0.8,0.6-1.7-0.2-2.4c-0.8-0.7-1.7-0.4-2.4,0.4l-1.9,2.2L51,65.8z"></path>		<path class="st7" d="M57.3,50.2l2.8-2.4l13.3,7.5l-2.9,2.5l-2.3-1.4l-3.7,3.2l1,2.5l-2.9,2.4L57.3,50.2z M63.4,56.9l2.4-2.1   L61.4,52l0,0L63.4,56.9z"></path>		<path class="st7" d="M66.5,42.7l3.2-2l8.8,5l0,0l-4.6-7.5l2.9-1.8l7.5,12.2l-3.2,2l-8.8-5.1l0,0l4.7,7.6L74,55L66.5,42.7z"></path>		<path class="st7" d="M92.1,33.3l-3.9,1.6l4.3,10.3l-3.4,1.4l-4.3-10.3L81,37.9l-1.2-3l11.1-4.6L92.1,33.3z"></path>		<path class="st7" d="M93.6,29.6l3.5-1l4.1,13.7l-3.5,1L93.6,29.6z"></path>		<path class="st7" d="M104.5,26.8l3.7-0.6l7.6,13.2l-3.8,0.7l-1.3-2.4l-4.8,0.8l-0.4,2.7l-3.7,0.6L104.5,26.8z M106.3,35.6l3.1-0.5   l-2.4-4.7l0,0L106.3,35.6z"></path>		<path class="st7" d="M123.1,24.9l11.2,0.6l-0.1,3l-7.5-0.4l-0.1,2.5l6.9,0.3l-0.1,2.9l-6.9-0.3l-0.1,2.7l7.7,0.4l-0.2,3.2   l-11.4-0.6L123.1,24.9z"></path>		<path class="st7" d="M140.3,33.3l-3.1-7.6l4.2,0.9l1.4,4.8l3.4-3.9l4.1,0.8l-5.8,5.7l3.3,8.4l-4.4-0.9l-1.6-5.2l-3.8,4.1l-4.1-0.9   L140.3,33.3z"></path>		<path class="st7" d="M160.3,37.5c0.3-1.4-0.4-2.5-1.9-3.1c-2.2-0.8-3.8,0.8-4.6,2.8c-0.8,2-0.7,4.3,1.5,5.1c1.6,0.6,2.9,0,3.6-1.5   l3.4,1.3c-1.5,3.4-4.8,4.4-8.1,3.2c-4-1.5-5.3-5.6-3.9-9.5s5.3-6,9.2-4.4c2.8,1.1,5.2,4.1,4,7.4L160.3,37.5z"></path>		<path class="st7" d="M168.8,35.8l3.2,1.8l-5.5,9.6l5.7,3.3l-1.6,2.8l-8.9-5.1L168.8,35.8z"></path>		<path class="st7" d="M184.9,56.9c-2.6,3.3-5.3,3.7-8.7,1.1c-3.3-2.6-3.5-5.4-0.9-8.7l5.2-6.6l2.9,2.3l-5.4,6.8   c-1.1,1.4-1.2,2.6,0.2,3.7c1.4,1.1,2.5,0.8,3.7-0.7l5.4-6.8l2.9,2.3L184.9,56.9z"></path>		<path class="st7" d="M188,61.7c-1.2,1.2-0.9,2.3,0.2,3.5c0.7,0.8,1.8,1.4,2.6,0.7c0.9-0.9-0.3-2.5-1.2-4.4c-0.9-1.9-1.7-4,0.3-5.8   c2.3-2.1,5.3-0.7,7.1,1.3c1.9,2.1,2.8,5.1,0.4,7.3l-2.5-2.7c1-0.8,0.5-2-0.3-2.8c-0.5-0.6-1.4-1.1-2.1-0.5   c-0.8,0.7,0.4,2.4,1.4,4.3c0.9,1.9,1.6,4-0.3,5.8c-2.7,2.5-5.6,1-7.7-1.3c-2.2-2.4-3.1-5.5-0.4-8L188,61.7z"></path>		<path class="st7" d="M202.5,64l2.2,2.9l-11.5,8.5l-2.2-2.9L202.5,64z"></path>		<path class="st7" d="M198.1,83.4l-2.1-3.6l10.1-11L208,72l-7.8,7.8l0,0l10.6-3l1.9,3.3L198.1,83.4z"></path>		<path class="st7" d="M214.9,85.1l1.4,3.4L205,98.8l-1.4-3.5l2-1.8l-1.9-4.5l-2.7,0.2l-1.4-3.5L214.9,85.1z M206.6,88.7l1.2,2.9   l4.1-3.3l0,0L206.6,88.7z"></path>	</g></g><polygon class="st7" points="31.9,124.5 33.3,127.2 36.3,127.7 34.1,129.8 34.7,132.9 31.9,131.4 29.2,132.9 29.7,129.8 27.5,127.7  30.6,127.2 "></polygon><polygon class="st7" points="214.7,124.5 216.1,127.2 219.1,127.7 216.9,129.8 217.4,132.9 214.7,131.4 212,132.9 212.5,129.8  210.3,127.7 213.4,127.2 "></polygon><g>	<g>		<path class="st8" d="M92.6,109.7c5.8,0.5,14.2-0.7,14.2-8.3c0-5.6-4.5-8.8-9.4-8.8c-6.7,0-10.4,5-10.3,11.9H74.2   c0.5-13.6,9.3-23,23-23c10.6,0,22.3,6.6,22.3,18.4c0,6.3-3.1,11.9-9.3,13.6v0.2c7.3,1.6,11.8,7.7,11.8,15.1   c0,14-11.7,21.9-24.7,21.9c-14.9,0-25-8.9-24.7-24.2h12.8c0.3,7.2,3.9,13.1,11.7,13.1c6.1,0,10.8-4.2,10.8-10.5   c0-10.1-8.8-9.9-15.4-9.9V109.7z"></path>		<path class="st8" d="M148.2,81.4c13.3,0,24.5,8.4,24.5,34.3c0,26.5-11.2,34.9-24.5,34.9c-13.1,0-24.3-8.4-24.3-34.9   C123.8,89.8,135,81.4,148.2,81.4z M148.2,139.5c11,0,11-16.3,11-23.8c0-6.9,0-23.2-11-23.2c-10.8,0-10.8,16.3-10.8,23.2   C137.3,123.3,137.3,139.5,148.2,139.5z"></path>	</g>	<g>		<path class="st8" d="M95.2,155.4h8.1c4.9,0,8.6,3.1,8.6,9.3c0,5.5-2.8,9.5-8.6,9.5h-8.1V155.4z M99.4,170.7h3.7   c2.4,0,4.7-1.5,4.7-5.6c0-3.8-1.3-6.2-5.4-6.2h-3V170.7z"></path>		<path class="st8" d="M114.8,155.4h4.1v18.9h-4.1V155.4z"></path>		<path class="st8" d="M127.7,155.4h4.3l7.1,18.9h-4.3l-1.4-4.2h-7l-1.5,4.2h-4.2L127.7,155.4z M127.3,166.9h4.9l-2.4-6.9h-0.1   L127.3,166.9z"></path>		<path class="st8" d="M143.5,168c0,2.5,2,3.5,4.2,3.5c1.5,0,3.7-0.4,3.7-2.4c0-2-2.8-2.4-5.6-3.1c-2.8-0.7-5.6-1.8-5.6-5.4   c0-3.9,3.6-5.7,7-5.7c3.9,0,7.6,1.7,7.6,6.1h-4c-0.1-2.3-1.7-2.9-3.7-2.9c-1.3,0-2.9,0.6-2.9,2.1c0,1.5,0.9,1.6,5.6,2.9   c1.4,0.3,5.6,1.2,5.6,5.5c0,3.5-2.7,6-7.8,6c-4.2,0-8.1-2.1-8-6.7H143.5z"></path>	</g></g></svg>