<svg xmlns="http://www.w3.org/2000/svg" xmlns:xlink="http://www.w3.org/1999/xlink" id="Camada_1" x="0px" y="0px" viewBox="0 0 123 30" style="enable-background:new 0 0 123 30;" xml:space="preserve"><style type="text/css">	.st0{fill:#FFFFFF;}	.st1{fill:#DB56C9;}</style><path class="st0" d="M60,29.5C33.5,29.5,33.5,0,0,0h122.5C88.5,0,83,29.5,60,29.5z"></path><path class="st1" d="M61,16c-0.3,0-0.5-0.1-0.7-0.3l-6-6c-0.4-0.4-0.4-1,0-1.4c0.4-0.4,1-0.4,1.4,0l5.3,5.3l5.3-5.3 c0.4-0.4,1-0.4,1.4,0s0.4,1,0,1.4l-6,6C61.5,15.9,61.3,16,61,16z"></path></svg>